<?xml version="1.0" encoding="UTF-8"?>
<svg xmlns="http://www.w3.org/2000/svg" xmlns:xlink="http://www.w3.org/1999/xlink" viewBox="0 0 100 100" width="100px" height="100px">
<g id="surface13965444">
<path style=" stroke:none;fill-rule:nonzero;fill:rgb(82.745099%,4.313726%,25.098041%);fill-opacity:1;" d="M 40 16 C 27.078125 16 16.734375 26.21875 16.1875 39 C 6.835938 41.554688 0 49.992188 0 60 C 0 72.09375 9.90625 82 22 82 L 82 82 C 91.890625 82 100 73.890625 100 64 C 100 56.203125 94.804688 49.585938 87.8125 47.25 C 87.390625 35.523438 77.820312 26 66 26 C 63.921875 26 61.984375 26.515625 60.0625 27.0625 C 55.765625 20.523438 48.4375 16 40 16 Z M 40 20 C 47.453125 20 53.984375 24.1875 57.4375 30.1875 L 58.3125 31.625 L 59.875 31.0625 C 61.875 30.335938 63.820312 30 66 30 C 75.90625 30 84 38.09375 84 48 L 84 50.1875 L 85.5625 50.5625 C 91.429688 51.945312 96 57.539062 96 64 C 96 71.710938 89.710938 78 82 78 L 22 78 C 12.09375 78 4 69.90625 4 60 C 4 51.34375 10.117188 43.992188 18.375 42.375 L 20 42.0625 L 20 40 C 20 28.867188 28.867188 20 40 20 Z M 48 40 L 48 63.125 L 39.4375 54.5625 L 36.5625 57.4375 L 48.5625 69.4375 L 50 70.8125 L 51.4375 69.4375 L 63.4375 57.4375 L 60.5625 54.5625 L 52 63.125 L 52 40 Z M 48 40 "/>
</g>
</svg>
